<?xml version="1.0" standalone="no"?>
<!DOCTYPE svg PUBLIC "-//W3C//DTD SVG 20010904//EN"
 "http://www.w3.org/TR/2001/REC-SVG-20010904/DTD/svg10.dtd">
<svg version="1.0" xmlns="http://www.w3.org/2000/svg"
 width="747.000000pt" height="747.000000pt" viewBox="0 0 747.000000 747.000000"
 preserveAspectRatio="xMidYMid meet">
<metadata>
Created by potrace 1.11, written by Peter Selinger 2001-2013
</metadata>
<g transform="translate(0.000000,747.000000) scale(0.100000,-0.100000)"
fill="#000000" stroke="none">
<path d="M3936 5414 c-97 -18 -235 -63 -318 -105 -302 -152 -566 -460 -657
-765 -67 -226 -69 -540 -5 -763 89 -312 352 -623 656 -777 172 -87 317 -123
521 -131 95 -4 137 -9 134 -17 -3 -6 -159 -267 -347 -581 -189 -313 -349 -584
-356 -602 -17 -40 -18 -132 -2 -185 28 -94 144 -178 247 -178 130 0 195 51
310 244 302 508 1074 1787 1121 1856 161 240 230 464 230 749 0 377 -125 672
-389 924 -186 177 -399 287 -640 332 -107 19 -394 19 -505 -1z m368 -464 c164
-24 309 -96 433 -214 118 -111 183 -217 229 -373 34 -116 37 -288 6 -404 -75
-280 -280 -492 -562 -581 -64 -20 -96 -23 -220 -23 -124 0 -156 3 -220 23
-218 68 -389 209 -489 401 -63 122 -83 198 -88 341 -7 179 23 301 108 448 48
81 199 230 284 280 156 91 341 127 519 102z"/>
<path d="M480 5369 c-55 -25 -105 -71 -133 -124 -22 -40 -22 -42 -25 -809 -3
-855 -4 -835 63 -913 19 -23 56 -52 83 -65 l47 -23 545 -5 c613 -7 593 -4 749
-85 165 -86 277 -198 357 -360 64 -131 79 -196 78 -350 0 -104 -4 -146 -22
-210 -98 -344 -417 -585 -773 -585 -218 0 -420 89 -577 254 -128 135 -195 291
-214 496 -12 134 -34 196 -86 241 -56 49 -108 69 -185 69 -109 0 -183 -42
-233 -132 -27 -50 -29 -60 -28 -163 1 -190 44 -366 135 -548 71 -143 140 -238
259 -358 183 -184 407 -308 657 -364 108 -25 368 -30 488 -11 559 92 1006 541
1100 1105 27 158 17 378 -23 531 -64 248 -188 457 -376 638 -142 137 -321 244
-511 308 -166 55 -253 64 -647 64 l-348 0 0 440 0 439 768 3 767 3 41 22 c53
28 99 74 127 127 31 58 31 174 -1 233 -28 54 -78 104 -128 129 -38 18 -72 19
-974 21 -923 3 -936 2 -980 -18z"/>
<path d="M6565 5290 c-232 -47 -446 -239 -518 -465 -32 -101 -32 -319 0 -420
30 -96 85 -185 163 -265 131 -135 270 -198 460 -207 134 -6 226 12 340 68 69
34 102 59 175 133 132 133 187 251 201 431 17 208 -62 405 -221 553 -134 124
-284 183 -464 181 -53 -1 -114 -5 -136 -9z m255 -262 c118 -35 215 -119 272
-236 31 -63 33 -72 33 -177 0 -104 -2 -114 -32 -175 -80 -163 -216 -251 -387
-252 -95 0 -168 21 -245 73 -135 90 -211 267 -182 424 47 254 301 415 541 343z"/>
</g>
</svg>
