<?xml version="1.0" encoding="utf-8"?>
<!-- Generator: Adobe Illustrator 19.1.1, SVG Export Plug-In . SVG Version: 6.00 Build 0)  -->
<svg version="1.1" id="Layer_1" xmlns="http://www.w3.org/2000/svg" xmlns:xlink="http://www.w3.org/1999/xlink" x="0px" y="0px"
	 viewBox="0 0 639 57.5" style="enable-background:new 0 0 639 57.5;" xml:space="preserve">
<polygon points="0,1 0,51.6 10.6,51.6 10.6,30.4 30.1,30.4 30.1,51.6 40.8,51.6 40.8,1 30.1,1 30.1,21.5 10.6,21.5 10.6,1 "/>
<path d="M65.6,51.6h11.3l4.5-12h22l4.6,12h11.8L98.2,1H87L65.6,51.6z M99.8,30.5H84.8l7.4-19.4L99.8,30.5z"/>
<polygon points="155.6,51.6 166.6,51.6 166.6,9.9 183,9.9 183,1.1 139.3,1.1 139.3,9.9 155.6,9.9 "/>
<polygon points="220.5,51.6 231.4,51.6 231.4,9.9 247.8,9.9 247.8,1.1 204.1,1.1 204.1,9.9 220.5,9.9 "/>
<g>
	<path d="M312.6,9.8V1h-17.7c-8.1,0-14.2,2.1-18,6.4c-3.9,4.2-5.8,10.8-5.8,19.8c0,4.6,0.6,8.5,2,11.8c1.3,3.4,3.2,6.1,5.8,8.1
		c2,1.6,4.2,2.7,6.4,3.5c2.3,0.6,5.4,1,9.4,1h18v-8.8h-17.5c-4.3,0-7.4-1-9.2-2.9c-1.8-1.9-2.8-5.1-2.8-9.5h29.5v-8.8h-29.4
		c0.2-3.9,1.3-6.9,3.2-8.9c2-1.9,4.9-2.9,8.7-2.9H312.6z"/>
	<path d="M376.6,51.6v-8.4h-12.5c-2.6,0-4.6-0.3-6.1-0.8c-1.5-0.5-2.7-1.3-3.7-2.5c-0.6-0.7-1.1-1.7-1.3-2.9
		c-0.3-1.2-0.4-3.3-0.4-6.3V1h-10.6v30.1c0,4,0.4,7.1,1.1,9.3c0.6,2.2,1.8,4.2,3.5,5.9c1.8,1.9,3.9,3.3,6.1,4.1
		c2.3,0.8,5.8,1.2,10.6,1.2H376.6z"/>
	<path d="M396.6,51.6h11.3l4.5-12h22l4.6,12h11.8L429.3,1H418L396.6,51.6z M430.9,30.5h-15.1l7.4-19.4L430.9,30.5z"/>
	<polygon points="475.6,51.6 486.5,51.6 486,13.3 507.8,51.6 520.1,51.6 520.1,1 509.3,1 509.8,37.3 489.1,1 475.6,1 	"/>
	<path d="M551.7,51.6h23.4c3.9,0,7.1-0.4,9.4-1c2.3-0.7,4.4-1.8,6.4-3.5c2.5-2,4.5-4.7,5.8-8.1c1.3-3.3,2-7.3,2-11.8
		c0-8.9-1.9-15.6-5.8-19.8c-3.9-4.3-9.9-6.4-18-6.4h-23.2V51.6z M584.3,13.4c1.8,2.3,2.7,6.6,2.7,12.9c0,6.3-0.9,10.6-2.7,13
		c-1.8,2.3-5.1,3.5-9.7,3.5h-12.3v-33h12.3C579.3,9.8,582.6,11,584.3,13.4"/>
	<path d="M622.2,1c1.6,0,3.2,0.3,4.6,0.9c1.4,0.6,2.7,1.5,3.9,2.6c1.1,1.1,1.9,2.4,2.5,3.8c0.6,1.4,0.9,2.9,0.9,4.5
		c0,1.6-0.3,3.1-0.9,4.6c-0.6,1.4-1.5,2.7-2.6,3.8c-1.1,1.1-2.4,2-3.9,2.5c-1.4,0.6-2.9,0.9-4.5,0.9c-1.6,0-3.1-0.3-4.5-0.9
		c-1.4-0.6-2.7-1.5-3.9-2.6c-1.1-1.1-1.9-2.4-2.5-3.8c-0.6-1.4-0.9-2.9-0.9-4.4c0-1.1,0.1-2.1,0.4-3.1c0.3-1,0.7-2,1.3-3
		c1.1-1.8,2.5-3.2,4.2-4.2C618.1,1.5,620.1,1,622.2,1 M622.2,3c-1.3,0-2.6,0.2-3.8,0.7c-1.1,0.5-2.2,1.2-3.1,2.1c-1,1-1.7,2-2.2,3.3
		c-0.5,1.2-0.8,2.5-0.8,3.8c0,1.3,0.2,2.5,0.7,3.7c0.5,1.2,1.2,2.2,2.1,3.1c0.9,1,2,1.7,3.2,2.2c1.2,0.5,2.5,0.8,3.8,0.8
		c1.3,0,2.5-0.2,3.7-0.7c1.2-0.5,2.3-1.2,3.3-2.1c0.9-0.9,1.6-1.9,2.1-3.1c0.5-1.2,0.8-2.4,0.8-3.7c0-1.4-0.2-2.7-0.7-3.9
		c-0.5-1.2-1.2-2.2-2.1-3.2c-1-1-2-1.7-3.2-2.2C624.9,3.2,623.6,3,622.2,3 M617.3,6h5.1c1.9,0,3.3,0.3,4.2,0.9
		c0.9,0.6,1.4,1.6,1.4,2.8c0,0.9-0.3,1.6-0.8,2.2c-0.5,0.6-1.2,1-2.1,1.3l2.9,5.8h-3.6l-2.5-5.3h-1.6v5.3h-3.2V6z M620.5,8.1v3.8
		h1.6c0.9,0,1.6-0.1,2-0.4c0.4-0.3,0.7-0.8,0.7-1.4c0-0.7-0.2-1.2-0.7-1.5c-0.5-0.3-1.2-0.5-2.2-0.5H620.5z"/>
</g>
</svg>
