<svg id="Layer_1" data-name="Layer 1" xmlns="http://www.w3.org/2000/svg" viewBox="0 0 56.58 44.98"><defs><style>.cls-1{fill:#ff5400;}</style></defs><title>kode59-logo</title><path class="cls-1" d="M2.73,22.41l0-19a1.21,1.21,0,0,1,.36-.89A1.19,1.19,0,0,1,4,2.17a1.18,1.18,0,0,1,.88.37,1.22,1.22,0,0,1,.37.89l0,11.68,7.15-4.65a1.3,1.3,0,0,1,.67-.19,1.13,1.13,0,0,1,.49.1,1.09,1.09,0,0,1,.4.27,1.41,1.41,0,0,1,.27.4,1.29,1.29,0,0,1,.1.48,1.12,1.12,0,0,1-.48,1l-5,3.25L14,21.55a1.25,1.25,0,0,1,.35.87,1.29,1.29,0,0,1-.1.48,1.56,1.56,0,0,1-.27.4,1.09,1.09,0,0,1-.4.27,1.3,1.3,0,0,1-.49.09,1.12,1.12,0,0,1-.83-.32l-5.53-6.2-1.46.95v4.32a1.21,1.21,0,0,1-.36.88,1.19,1.19,0,0,1-.88.37,1.19,1.19,0,0,1-.89-.37A1.18,1.18,0,0,1,2.73,22.41Z" transform="translate(-2.73 -2.17)"/><path class="cls-1" d="M56.14,19.87a1.25,1.25,0,0,1,.9.34,1.18,1.18,0,0,1,.36.89,1.2,1.2,0,0,1-.35.9,6.35,6.35,0,0,1-4.36,1.67,6.42,6.42,0,0,1-4.75-1.9,6.49,6.49,0,0,1-2-4.72A6.7,6.7,0,0,1,57.3,12.19a6.6,6.6,0,0,1,1.5,2.14,6.81,6.81,0,0,1,.52,2.57,1.22,1.22,0,0,1-.36.9,1.19,1.19,0,0,1-.88.36l-9.48.11a4.28,4.28,0,0,0,1.55,2.11,4,4,0,0,0,1.18.59,4.27,4.27,0,0,0,1.34.21,4.44,4.44,0,0,0,1.44-.26,3.88,3.88,0,0,0,1.21-.73A1.31,1.31,0,0,1,56.14,19.87Zm.5-4.18a4,4,0,0,0-.62-1.2,4.82,4.82,0,0,0-.94-.92A4.5,4.5,0,0,0,53.9,13a4.19,4.19,0,0,0-2.65,0,4.58,4.58,0,0,0-1.18.62,4.32,4.32,0,0,0-.92.94,3.84,3.84,0,0,0-.57,1.21Z" transform="translate(-2.73 -2.17)"/><path class="cls-1" d="M27.67,28.66H20v4.6h3.17a6.7,6.7,0,0,1,2.66.55A7.39,7.39,0,0,1,28,35.29a7.09,7.09,0,0,1,1.52,2.21,6.71,6.71,0,0,1,.56,2.71,6.61,6.61,0,0,1-.56,2.69,7,7,0,0,1-3.7,3.7,6.74,6.74,0,0,1-5.38,0,6.85,6.85,0,0,1-2.2-1.49,7.2,7.2,0,0,1-1.5-2.21,6.61,6.61,0,0,1-.55-2.69,1.33,1.33,0,0,1,1.38-1.38,1.37,1.37,0,0,1,1,.39,1.32,1.32,0,0,1,.41,1,4.14,4.14,0,0,0,.32,1.62,4.12,4.12,0,0,0,2.22,2.22,4.24,4.24,0,0,0,3.23,0,4.22,4.22,0,0,0,1.33-.9,4.3,4.3,0,0,0,.9-1.32,4,4,0,0,0,.33-1.62A3.85,3.85,0,0,0,27,38.6a4.2,4.2,0,0,0-2.22-2.22,4,4,0,0,0-1.61-.33H18.58a1.35,1.35,0,0,1-1-.4,1.38,1.38,0,0,1-.39-1V27.28a1.37,1.37,0,0,1,.39-1,1.32,1.32,0,0,1,1-.41h9.09a1.35,1.35,0,0,1,1,.41,1.38,1.38,0,0,1,.41,1,1.36,1.36,0,0,1-.41,1A1.34,1.34,0,0,1,27.67,28.66Z" transform="translate(-2.73 -2.17)"/><path class="cls-1" d="M37.86,25.64V23.72a6.46,6.46,0,0,0,4.3-1.94,6.39,6.39,0,0,0,2-4.73,6.82,6.82,0,0,0-.5-2.58,6.61,6.61,0,0,0-.9-1.53h0l-6-10a1.46,1.46,0,0,0-1.81-.66,1.77,1.77,0,0,0-.46.31,1.37,1.37,0,0,0-.3.45,1.4,1.4,0,0,0-.11.53,1.49,1.49,0,0,0,.2.74l3.63,6-.46,0a6.69,6.69,0,0,0-6.68,6.3H28.82a7,7,0,0,0-.48-2.25,6.68,6.68,0,0,0-1.47-2.17,6.7,6.7,0,0,0-9.47,0,6.45,6.45,0,0,0-2,4.74,6.69,6.69,0,0,0,6.7,6.69,6.48,6.48,0,0,0,4.73-2,6.34,6.34,0,0,0,1.94-4.14h1.94A6.68,6.68,0,0,0,37,23.72v1.92a6.68,6.68,0,0,0-6.23,6.68A6.69,6.69,0,0,0,37.42,39l.46,0-3.63,6a1.46,1.46,0,0,0-.2.73,1.32,1.32,0,0,0,.11.53,1.33,1.33,0,0,0,.76.76,1.43,1.43,0,0,0,1.81-.65l6-10h0a6.4,6.4,0,0,0,.9-1.53,6.76,6.76,0,0,0,.5-2.57,6.41,6.41,0,0,0-2-4.74A6.51,6.51,0,0,0,37.86,25.64ZM26,18.59a4.34,4.34,0,0,1-.9,1.33,4.25,4.25,0,0,1-1.33.91,4.2,4.2,0,0,1-4.62-.9,4.24,4.24,0,0,1-.89-1.34,4.17,4.17,0,0,1,0-3.25A4.2,4.2,0,0,1,19.16,14a4.11,4.11,0,0,1,1.33-.9,4.15,4.15,0,0,1,3.29,0,4.22,4.22,0,0,1,1.33.9,4.39,4.39,0,0,1,.9,1.34A4.14,4.14,0,0,1,26.33,17,4.22,4.22,0,0,1,26,18.59ZM34.45,20a4.27,4.27,0,0,1-.9-1.34,4.29,4.29,0,0,1,0-3.25,4.33,4.33,0,0,1,2.22-2.24,4.27,4.27,0,0,1,3.29,0,4.28,4.28,0,0,1,2.23,2.25,4,4,0,0,1,.33,1.62,4,4,0,0,1-.33,1.62,4.34,4.34,0,0,1-.9,1.33,4.21,4.21,0,0,1-4.62.91A4.23,4.23,0,0,1,34.45,20Zm6.84,13.93a4.22,4.22,0,0,1-.9,1.33,4.16,4.16,0,0,1-4.62.91,4.07,4.07,0,0,1-1.32-.9,4.22,4.22,0,0,1-.9-1.33,4.31,4.31,0,0,1,0-3.26,4.22,4.22,0,0,1,.9-1.33,4.07,4.07,0,0,1,1.32-.9,4.17,4.17,0,0,1,4.62.91,4.22,4.22,0,0,1,.9,1.33,4.14,4.14,0,0,1,0,3.24Z" transform="translate(-2.73 -2.17)"/><path class="cls-1" d="M2.73,22.41l0-19a1.21,1.21,0,0,1,.36-.89A1.19,1.19,0,0,1,4,2.17a1.18,1.18,0,0,1,.88.37,1.22,1.22,0,0,1,.37.89l0,11.68,7.15-4.65a1.3,1.3,0,0,1,.67-.19,1.13,1.13,0,0,1,.49.1,1.09,1.09,0,0,1,.4.27,1.41,1.41,0,0,1,.27.4,1.29,1.29,0,0,1,.1.48,1.12,1.12,0,0,1-.48,1l-5,3.25L14,21.55a1.25,1.25,0,0,1,.35.87,1.29,1.29,0,0,1-.1.48,1.56,1.56,0,0,1-.27.4,1.09,1.09,0,0,1-.4.27,1.3,1.3,0,0,1-.49.09,1.12,1.12,0,0,1-.83-.32l-5.53-6.2-1.46.95v4.32a1.21,1.21,0,0,1-.36.88,1.19,1.19,0,0,1-.88.37,1.19,1.19,0,0,1-.89-.37A1.18,1.18,0,0,1,2.73,22.41Z" transform="translate(-2.73 -2.17)"/><path class="cls-1" d="M56.14,19.87a1.25,1.25,0,0,1,.9.34,1.18,1.18,0,0,1,.36.89,1.2,1.2,0,0,1-.35.9,6.35,6.35,0,0,1-4.36,1.67,6.42,6.42,0,0,1-4.75-1.9,6.49,6.49,0,0,1-2-4.72A6.7,6.7,0,0,1,57.3,12.19a6.6,6.6,0,0,1,1.5,2.14,6.81,6.81,0,0,1,.52,2.57,1.22,1.22,0,0,1-.36.9,1.19,1.19,0,0,1-.88.36l-9.48.11a4.28,4.28,0,0,0,1.55,2.11,4,4,0,0,0,1.18.59,4.27,4.27,0,0,0,1.34.21,4.44,4.44,0,0,0,1.44-.26,3.88,3.88,0,0,0,1.21-.73A1.31,1.31,0,0,1,56.14,19.87Zm.5-4.18a4,4,0,0,0-.62-1.2,4.82,4.82,0,0,0-.94-.92A4.5,4.5,0,0,0,53.9,13a4.19,4.19,0,0,0-2.65,0,4.58,4.58,0,0,0-1.18.62,4.32,4.32,0,0,0-.92.94,3.84,3.84,0,0,0-.57,1.21Z" transform="translate(-2.73 -2.17)"/><path class="cls-1" d="M27.67,28.66H20v4.6h3.17a6.7,6.7,0,0,1,2.66.55A7.39,7.39,0,0,1,28,35.29a7.09,7.09,0,0,1,1.52,2.21,6.71,6.71,0,0,1,.56,2.71,6.61,6.61,0,0,1-.56,2.69,7,7,0,0,1-3.7,3.7,6.74,6.74,0,0,1-5.38,0,6.85,6.85,0,0,1-2.2-1.49,7.2,7.2,0,0,1-1.5-2.21,6.61,6.61,0,0,1-.55-2.69,1.33,1.33,0,0,1,1.38-1.38,1.37,1.37,0,0,1,1,.39,1.32,1.32,0,0,1,.41,1,4.14,4.14,0,0,0,.32,1.62,4.12,4.12,0,0,0,2.22,2.22,4.24,4.24,0,0,0,3.23,0,4.22,4.22,0,0,0,1.33-.9,4.3,4.3,0,0,0,.9-1.32,4,4,0,0,0,.33-1.62A3.85,3.85,0,0,0,27,38.6a4.2,4.2,0,0,0-2.22-2.22,4,4,0,0,0-1.61-.33H18.58a1.35,1.35,0,0,1-1-.4,1.38,1.38,0,0,1-.39-1V27.28a1.37,1.37,0,0,1,.39-1,1.32,1.32,0,0,1,1-.41h9.09a1.35,1.35,0,0,1,1,.41,1.38,1.38,0,0,1,.41,1,1.36,1.36,0,0,1-.41,1A1.34,1.34,0,0,1,27.67,28.66Z" transform="translate(-2.73 -2.17)"/><path class="cls-1" d="M37.86,25.64V23.72a6.46,6.46,0,0,0,4.3-1.94,6.39,6.39,0,0,0,2-4.73,6.82,6.82,0,0,0-.5-2.58,6.61,6.61,0,0,0-.9-1.53h0l-6-10a1.46,1.46,0,0,0-1.81-.66,1.77,1.77,0,0,0-.46.31,1.37,1.37,0,0,0-.3.45,1.4,1.4,0,0,0-.11.53,1.49,1.49,0,0,0,.2.74l3.63,6-.46,0a6.69,6.69,0,0,0-6.68,6.3H28.82a7,7,0,0,0-.48-2.25,6.68,6.68,0,0,0-1.47-2.17,6.7,6.7,0,0,0-9.47,0,6.45,6.45,0,0,0-2,4.74,6.69,6.69,0,0,0,6.7,6.69,6.48,6.48,0,0,0,4.73-2,6.34,6.34,0,0,0,1.94-4.14h1.94A6.68,6.68,0,0,0,37,23.72v1.92a6.68,6.68,0,0,0-6.23,6.68A6.69,6.69,0,0,0,37.42,39l.46,0-3.63,6a1.46,1.46,0,0,0-.2.73,1.32,1.32,0,0,0,.11.53,1.33,1.33,0,0,0,.76.76,1.43,1.43,0,0,0,1.81-.65l6-10h0a6.4,6.4,0,0,0,.9-1.53,6.76,6.76,0,0,0,.5-2.57,6.41,6.41,0,0,0-2-4.74A6.51,6.51,0,0,0,37.86,25.64ZM26,18.59a4.34,4.34,0,0,1-.9,1.33,4.25,4.25,0,0,1-1.33.91,4.2,4.2,0,0,1-4.62-.9,4.24,4.24,0,0,1-.89-1.34,4.17,4.17,0,0,1,0-3.25A4.2,4.2,0,0,1,19.16,14a4.11,4.11,0,0,1,1.33-.9,4.15,4.15,0,0,1,3.29,0,4.22,4.22,0,0,1,1.33.9,4.39,4.39,0,0,1,.9,1.34A4.14,4.14,0,0,1,26.33,17,4.22,4.22,0,0,1,26,18.59ZM34.45,20a4.27,4.27,0,0,1-.9-1.34,4.29,4.29,0,0,1,0-3.25,4.33,4.33,0,0,1,2.22-2.24,4.27,4.27,0,0,1,3.29,0,4.28,4.28,0,0,1,2.23,2.25,4,4,0,0,1,.33,1.62,4,4,0,0,1-.33,1.62,4.34,4.34,0,0,1-.9,1.33,4.21,4.21,0,0,1-4.62.91A4.23,4.23,0,0,1,34.45,20Zm6.84,13.93a4.22,4.22,0,0,1-.9,1.33,4.16,4.16,0,0,1-4.62.91,4.07,4.07,0,0,1-1.32-.9,4.22,4.22,0,0,1-.9-1.33,4.31,4.31,0,0,1,0-3.26,4.22,4.22,0,0,1,.9-1.33,4.07,4.07,0,0,1,1.32-.9,4.17,4.17,0,0,1,4.62.91,4.22,4.22,0,0,1,.9,1.33,4.14,4.14,0,0,1,0,3.24Z" transform="translate(-2.73 -2.17)"/><path class="cls-1" d="M54.11,29.91a3.41,3.41,0,0,1-1,2.53,3.58,3.58,0,1,1,0-5.06,3.39,3.39,0,0,1,.78,1.16A3.45,3.45,0,0,1,54.11,29.91Zm-3.58-2.24a2.13,2.13,0,0,0-.88.18,2.22,2.22,0,0,0-.71.48,2.34,2.34,0,0,0-.48.71,2.19,2.19,0,0,0,0,1.74,2.34,2.34,0,0,0,.48.71,2.1,2.1,0,0,0,.71.49,2.24,2.24,0,0,0,2.47-.49,2.34,2.34,0,0,0,.48-.71,2.29,2.29,0,0,0,.17-.87,2.24,2.24,0,0,0-.17-.86,2.39,2.39,0,0,0-.48-.72,2.27,2.27,0,0,0-.72-.48A2.12,2.12,0,0,0,50.53,27.67Z" transform="translate(-2.73 -2.17)"/></svg>